<svg xmlns="http://www.w3.org/2000/svg" xmlns:xlink="http://www.w3.org/1999/xlink" aria-hidden="true" role="img" class="iconify iconify--logos" width="31.88" height="32" preserveAspectRatio="xMidYMid meet" viewBox="0 0 256 257">


 <path  fill="#373435" stroke="#956c16" stroke-width="105.83" stroke-miterlimit="22.9256" d="M7696.09 5907.06c1715.63,-683.97 3814.44,-1171.8 5530.12,-1476.43 -1417.52,987.6 -2957.14,2887.9 -4218.37,4883.56l-553.64 -2829.17c-78.44,-323.74 -304.18,-487.19 -758.11,-577.96z" />
  <path  fill="#fdb515" stroke="#956c16" stroke-width="105.83"  d="M10182.68 4645.43c-469.34,128.16 -820.56,428.34 -781.86,668.23 38.71,239.88 453.06,330.99 922.39,202.83 469.34,-128.17 820.56,-428.35 781.85,-668.22 -38.7,-239.9 -453.05,-331 -922.38,-202.84z" />
  <path  fill="#fdb515" stroke="#956c16" stroke-width="105.83"  d="M8161.68 5737.77l-878.28 315.7 -3004.67 2934.63 -307.63 190.14 767.74 0 62.53 -186.56 1033.67 -1011.69 1104.97 0 -53.52 294.18 -32.85 35.87 -115.59 93.28 1390.65 -7.17 -13.58 -93.27 539.79 -2740.89 -493.23 175.78zm-943.21 918.41l-208.32 1022.46 -20.22 7.17 -861.01 0 1092.39 -1072.67 -2.84 43.04z" />

</svg>
